<svg xmlns="http://www.w3.org/2000/svg" width="80" height="80.043" viewBox="0 0 80 80.043">
  <path id="iconmonstr-party-5" d="M16.075,73.138l9.112-3.9-10.8-29.486-5.2,14.572ZM7.429,59.227,0,80.027l13.008-5.573L7.429,59.227Zm20.824,8.7,9.779-4.193L26.427,33.263,19.044,26.7l-2.906,8.142ZM53.327,57.177,31.819,38.059,41.1,62.416ZM50.574,40.5l7.336-4.816A1.667,1.667,0,0,0,56.08,32.9l-7.336,4.816a1.667,1.667,0,0,0,1.83,2.786M40.6,26.131,44.3,18.172a1.667,1.667,0,0,0-3.023-1.406l-3.7,7.959a1.665,1.665,0,0,0,.807,2.213l.7.157a1.663,1.663,0,0,0,1.51-.963m-8.756,2.363c5.129-9.875,5.479-19.1,1.047-27.4a1.666,1.666,0,1,0-2.94,1.57c3.886,7.279,3.526,15.455-1.067,24.3a1.667,1.667,0,1,0,2.96,1.536M53.523,48.808c6.722-4.779,14.875-5.466,24.237-2.043a1.668,1.668,0,0,0,1.147-3.133c-10.452-3.823-19.644-3-27.317,2.46a1.667,1.667,0,0,0,1.933,2.716M66.045,26.287l-5.656.047,3.126,4.716-1.7,5.393,5.449-1.516,4.6,3.286.243-5.653L76.657,29.2l-5.3-1.973-1.793-5.366ZM41.691,38.366a1.666,1.666,0,0,0,1.61-1.723c-.187-5.423,1.2-6.456,4.589-6.836,5.629-.637,5.949-4.373,6.139-6.606.177-2.123.237-2.836,2.576-3.01,2.1-.153,4.436-.533,5.866-2.2,1.536-1.793,1.553-4.526,1.34-7.212a1.665,1.665,0,1,0-3.32.26c.207,2.623.037,4.1-.55,4.779-.5.58-1.6.9-3.58,1.047-5.176.38-5.479,3.93-5.656,6.053-.19,2.226-.273,3.243-3.186,3.57-6.916.78-7.716,5.4-7.552,10.265a1.669,1.669,0,0,0,1.666,1.61h.057M67.828,9.453A6.081,6.081,0,1,0,73.911,3.37a6.086,6.086,0,0,0-6.083,6.083M45.754-.016A6.666,6.666,0,1,1,39.088,6.65,6.67,6.67,0,0,1,45.754-.016" transform="translate(0 0.016)" fill="#d0ff00" fill-rule="evenodd"/>
</svg>
