<svg xmlns="http://www.w3.org/2000/svg" width="87.279" height="80" viewBox="0 0 87.279 80">
  <path id="iconmonstr-sms-3" d="M72.727,31.371C72.727,13.727,55.455,1,36.364,1,17.16,1,0,13.825,0,31.371A26.8,26.8,0,0,0,6.2,48.444C6.371,54,3.109,61.967.164,67.76c7.884-1.422,19.1-4.575,24.175-7.691,27.993,6.825,48.389-10.335,48.389-28.7ZM22.109,39.407a8.286,8.286,0,0,1-5.273,1.5,11.3,11.3,0,0,1-5.12-1.113l.829-3.28a9.988,9.988,0,0,0,4.549,1.135,3.652,3.652,0,0,0,2.076-.505,1.641,1.641,0,0,0,.073-2.7,8.228,8.228,0,0,0-2.331-1.084q-4.991-1.664-4.985-5.2a4.627,4.627,0,0,1,1.829-3.767,7.576,7.576,0,0,1,4.887-1.48,11.149,11.149,0,0,1,4.651.905l-.9,3.175a8.894,8.894,0,0,0-3.8-.847,3.369,3.369,0,0,0-1.9.465,1.438,1.438,0,0,0-.109,2.382,10.5,10.5,0,0,0,2.76,1.262,8.427,8.427,0,0,1,3.538,2.113A4.546,4.546,0,0,1,24,35.5,4.774,4.774,0,0,1,22.109,39.407Zm20.113,1.215q-.415-10.369-.411-14.065h-.084q-.622,2.776-4.236,13.778H34.367C32.924,35.276,30.8,26.556,30.8,26.556h-.055l-.615,14.065H26.4L27.513,23.2h5.425l3.073,12.022L39.735,23.2h5.487l.935,17.425ZM59.084,39.48A8.4,8.4,0,0,1,53.756,41a11.434,11.434,0,0,1-5.233-1.153l.876-3.476a9.911,9.911,0,0,0,4.615,1.182,3.516,3.516,0,0,0,2.018-.491,1.539,1.539,0,0,0,.073-2.545,8.35,8.35,0,0,0-2.3-1.069c-3.356-1.113-5.062-2.887-5.062-5.287a4.741,4.741,0,0,1,1.876-3.84,7.628,7.628,0,0,1,4.938-1.5,11.346,11.346,0,0,1,4.695.909l.073.036-.96,3.367a8.765,8.765,0,0,0-3.858-.895,3.309,3.309,0,0,0-1.851.451,1.349,1.349,0,0,0-.095,2.236,10.908,10.908,0,0,0,2.727,1.244,8.465,8.465,0,0,1,3.571,2.138,4.659,4.659,0,0,1,1.149,3.2A4.848,4.848,0,0,1,59.084,39.48ZM83.215,68.349C83.109,71.989,85.244,77.2,87.171,81c-5.16-.938-12.5-3-15.825-5.036-11.924,2.9-22.051-.811-27.553-7.636A48.9,48.9,0,0,0,50.12,67c6.633,5.644,14.407,5,22.142,3.109a21.5,21.5,0,0,0,6.055,2.956,21.182,21.182,0,0,1-.5-6.782c6.52-7.782,4.411-14.924-1.687-19.509a34.3,34.3,0,0,0,2.185-5.149c10.513,6.956,11.284,19.095,4.9,26.72Z" transform="translate(0 -1)" fill="#d0ff00"/>
</svg>
